<?xml version="1.0" encoding="utf-8"?>
<!-- Generator: Adobe Illustrator 27.4.0, SVG Export Plug-In . SVG Version: 6.00 Build 0)  -->
<svg version="1.1" xmlns="http://www.w3.org/2000/svg" xmlns:xlink="http://www.w3.org/1999/xlink" x="0px" y="0px"
	 viewBox="0 0 24 24" style="enable-background:new 0 0 24 24;" xml:space="preserve">
<style type="text/css">
	.st0{display:none;}
	.st1{fill:#FFFFFF;}
	.st2{font-family:'Impact';}
	.st3{font-size:5px;}
</style>
<g id="Layer_2" class="st0">
</g>
<g id="Layer_1">
	<path class="st1" d="M13.5,8.4c0,0.9-0.7,1.5-1.5,1.5c-0.9,0-1.5-0.7-1.5-1.5l0,0c0-0.9,0.7-1.5,1.5-1.5
		C12.8,6.8,13.5,7.5,13.5,8.4L13.5,8.4z M15.4,1c-0.9,0-2.1,0.7-3.4,1.8C10.8,1.7,9.5,1,8.6,1C8.3,1,8.1,1.1,7.9,1.2
		C6.9,1.8,6.7,3.5,7.2,5.6C5.1,6.2,3.7,7.3,3.7,8.4c0,1.1,1.4,2.1,3.5,2.8c-0.5,2.1-0.3,3.9,0.7,4.4c0.2,0.1,0.5,0.2,0.8,0.2
		c0.9,0,2.1-0.7,3.4-1.8c1.2,1.1,2.4,1.8,3.4,1.8c0.3,0,0.5-0.1,0.8-0.2c0.9-0.5,1.2-2.2,0.7-4.4c2.1-0.6,3.5-1.7,3.5-2.8
		c0-1.1-1.4-2.1-3.5-2.8c0.5-2.1,0.3-3.8-0.7-4.4C15.9,1.1,15.6,1,15.4,1L15.4,1z M15.4,1.8L15.4,1.8c0.2,0,0.3,0,0.4,0.1
		c0.5,0.3,0.7,1.3,0.5,2.6c0,0.3-0.1,0.7-0.2,1c-0.7-0.2-1.4-0.3-2.1-0.4c-0.5-0.6-0.9-1.2-1.4-1.7C13.6,2.3,14.7,1.8,15.4,1.8
		L15.4,1.8z M8.6,1.8c0.7,0,1.7,0.6,2.8,1.6C11,3.8,10.5,4.4,10.1,5C9.3,5.1,8.6,5.2,7.9,5.4c-0.1-0.3-0.1-0.7-0.2-1
		c-0.2-1.3,0-2.3,0.5-2.6C8.4,1.8,8.5,1.8,8.6,1.8L8.6,1.8z M12,3.9c0.3,0.3,0.6,0.7,0.9,1.1c-0.3,0-0.6,0-0.9,0c-0.3,0-0.6,0-0.9,0
		C11.4,4.6,11.7,4.2,12,3.9L12,3.9z M12,5.7c0.5,0,1,0,1.5,0.1c0.3,0.4,0.6,0.8,0.8,1.3c0.3,0.4,0.5,0.9,0.7,1.3
		c-0.2,0.5-0.4,0.9-0.7,1.3c-0.3,0.5-0.5,0.9-0.8,1.3c-0.5,0-1,0.1-1.5,0.1c-0.5,0-1,0-1.5-0.1c-0.3-0.4-0.6-0.8-0.8-1.3
		C9.4,9.3,9.2,8.8,9,8.4C9.2,7.9,9.4,7.5,9.7,7c0.3-0.5,0.5-0.9,0.8-1.3C11,5.7,11.5,5.7,12,5.7L12,5.7z M9.5,5.9
		C9.3,6.1,9.2,6.4,9,6.7C8.9,6.9,8.7,7.2,8.6,7.5C8.4,7,8.2,6.6,8.1,6.1C8.5,6,9,5.9,9.5,5.9L9.5,5.9z M14.5,5.9
		C15,5.9,15.4,6,15.9,6.1c-0.1,0.4-0.3,0.9-0.5,1.3c-0.1-0.3-0.3-0.5-0.4-0.8C14.8,6.4,14.7,6.1,14.5,5.9L14.5,5.9z M16.6,6.3
		c0.3,0.1,0.7,0.2,0.9,0.3c1.2,0.5,2,1.2,2,1.7c0,0.5-0.8,1.2-2,1.7c-0.3,0.1-0.6,0.2-0.9,0.3c-0.2-0.7-0.4-1.3-0.8-2.1
		C16.2,7.7,16.4,7,16.6,6.3L16.6,6.3z M7.4,6.3C7.6,7,7.8,7.7,8.1,8.4c-0.3,0.7-0.6,1.4-0.7,2c-0.3-0.1-0.7-0.2-0.9-0.3
		c-1.2-0.5-2-1.2-2-1.7s0.8-1.2,2-1.7C6.7,6.5,7,6.4,7.4,6.3z M15.4,9.3c0.2,0.5,0.3,0.9,0.5,1.3c-0.4,0.1-0.9,0.2-1.4,0.3
		c0.2-0.3,0.3-0.5,0.5-0.8C15.1,9.8,15.3,9.5,15.4,9.3L15.4,9.3z M8.6,9.3C8.7,9.6,8.9,9.8,9,10.1c0.2,0.3,0.3,0.5,0.5,0.8
		c-0.5-0.1-0.9-0.2-1.4-0.3C8.2,10.2,8.4,9.7,8.6,9.3L8.6,9.3z M16.1,11.3c0.1,0.3,0.1,0.7,0.2,1c0.2,1.3,0,2.3-0.5,2.6
		c-0.1,0.1-0.2,0.1-0.4,0.1c-0.7,0-1.7-0.6-2.8-1.6c0.5-0.5,0.9-1.1,1.4-1.7C14.7,11.6,15.4,11.5,16.1,11.3L16.1,11.3z M7.9,11.4
		c0.7,0.2,1.4,0.3,2.1,0.4c0.5,0.6,0.9,1.2,1.4,1.7c-1.1,1-2.1,1.6-2.8,1.6c-0.2,0-0.3,0-0.4-0.1c-0.5-0.3-0.7-1.3-0.5-2.6
		C7.8,12,7.8,11.7,7.9,11.4L7.9,11.4z M11.1,11.8c0.3,0,0.6,0,0.9,0c0.3,0,0.6,0,0.9,0c-0.3,0.4-0.6,0.8-0.9,1.1
		C11.7,12.5,11.4,12.2,11.1,11.8z"/>
	<text transform="matrix(1 0 0 1 0.4595 22.7361)" class="st1 st2 st3">Context API</text>
</g>
</svg>
